<svg width="424" height="515" viewBox="0 0 424 515" fill="none" xmlns="http://www.w3.org/2000/svg">
<path opacity="0.35" d="M166.278 514.353C198.317 514.353 224.29 488.38 224.29 456.341C224.29 424.302 198.317 398.329 166.278 398.329C134.239 398.329 108.266 424.302 108.266 456.341C108.266 488.38 134.239 514.353 166.278 514.353Z" fill="white"/>
<path opacity="0.35" d="M55.8421 427.49C84.7972 427.49 108.27 404.017 108.27 375.062C108.27 346.107 84.7972 322.634 55.8421 322.634C26.8869 322.634 3.41406 346.107 3.41406 375.062C3.41406 404.017 26.8869 427.49 55.8421 427.49Z" fill="white"/>
<path opacity="0.35" d="M45.9132 299.677C71.2704 299.677 91.8266 279.121 91.8266 253.764C91.8266 228.407 71.2704 207.851 45.9132 207.851C20.556 207.851 0 228.407 0 253.764C0 279.121 20.556 299.677 45.9132 299.677Z" fill="white"/>
<path opacity="0.35" d="M108.272 208.781C129.517 208.781 146.74 191.558 146.74 170.313C146.74 149.068 129.517 131.845 108.272 131.845C87.027 131.845 69.8047 149.068 69.8047 170.313C69.8047 191.558 87.027 208.781 108.272 208.781Z" fill="white"/>
<path opacity="0.35" d="M196.993 196.993C215.155 196.993 229.877 182.27 229.877 164.109C229.877 145.948 215.155 131.225 196.993 131.225C178.832 131.225 164.109 145.948 164.109 164.109C164.109 182.27 178.832 196.993 196.993 196.993Z" fill="white"/>
<path opacity="0.35" d="M264.621 234.84C280.212 234.84 292.851 222.201 292.851 206.609C292.851 191.018 280.212 178.379 264.621 178.379C249.03 178.379 236.391 191.018 236.391 206.609C236.391 222.201 249.03 234.84 264.621 234.84Z" fill="white"/>
<path opacity="0.15" d="M241.356 116.024C273.395 116.024 299.368 90.0511 299.368 58.012C299.368 25.9729 273.395 0 241.356 0C209.316 0 183.344 25.9729 183.344 58.012C183.344 90.0511 209.316 116.024 241.356 116.024Z" fill="white"/>
<path opacity="0.15" d="M358.311 182.412C387.266 182.412 410.738 158.939 410.738 129.984C410.738 101.029 387.266 77.5562 358.311 77.5562C329.356 77.5562 305.883 101.029 305.883 129.984C305.883 158.939 329.356 182.412 358.311 182.412Z" fill="white"/>
<path opacity="0.15" d="M377.851 295.954C403.208 295.954 423.764 275.398 423.764 250.041C423.764 224.684 403.208 204.128 377.851 204.128C352.493 204.128 331.938 224.684 331.938 250.041C331.938 275.398 352.493 295.954 377.851 295.954Z" fill="white"/>
<path opacity="0.15" d="M322.944 376.923C344.19 376.923 361.412 359.7 361.412 338.455C361.412 317.209 344.19 299.987 322.944 299.987C301.699 299.987 284.477 317.209 284.477 338.455C284.477 359.7 301.699 376.923 322.944 376.923Z" fill="white"/>
<path opacity="0.15" d="M234.837 384.989C252.998 384.989 267.721 370.266 267.721 352.105C267.721 333.944 252.998 319.221 234.837 319.221C216.676 319.221 201.953 333.944 201.953 352.105C201.953 370.266 216.676 384.989 234.837 384.989Z" fill="white"/>
<path opacity="0.15" d="M164.105 343.419C179.697 343.419 192.336 330.78 192.336 315.188C192.336 299.597 179.697 286.958 164.105 286.958C148.514 286.958 135.875 299.597 135.875 315.188C135.875 330.78 148.514 343.419 164.105 343.419Z" fill="white"/>
</svg>
