<svg width="28" height="28" viewBox="0 0 28 28" fill="none" xmlns="http://www.w3.org/2000/svg">
<path d="M24.5 9.0415H3.5C3.02167 9.0415 2.625 8.64484 2.625 8.1665C2.625 7.68817 3.02167 7.2915 3.5 7.2915H24.5C24.9783 7.2915 25.375 7.68817 25.375 8.1665C25.375 8.64484 24.9783 9.0415 24.5 9.0415Z" fill="white"/>
<path d="M24.5 14.875H3.5C3.02167 14.875 2.625 14.4783 2.625 14C2.625 13.5217 3.02167 13.125 3.5 13.125H24.5C24.9783 13.125 25.375 13.5217 25.375 14C25.375 14.4783 24.9783 14.875 24.5 14.875Z" fill="white"/>
<path d="M24.5 20.7085H3.5C3.02167 20.7085 2.625 20.3118 2.625 19.8335C2.625 19.3552 3.02167 18.9585 3.5 18.9585H24.5C24.9783 18.9585 25.375 19.3552 25.375 19.8335C25.375 20.3118 24.9783 20.7085 24.5 20.7085Z" fill="white"/>
</svg>
