<svg width="24" height="24" viewBox="0 0 24 24" fill="none" xmlns="http://www.w3.org/2000/svg">
<path d="M21.6028 13.9705L21.6023 13.973C21.4758 14.5263 21.164 15.0197 20.7187 15.3715C20.2736 15.7231 19.7219 15.9122 19.1548 15.9074H5.62418V16.3917C5.62418 16.5201 5.6752 16.6433 5.76601 16.7341C5.85683 16.8249 5.97999 16.8759 6.10842 16.8759H20.059C20.6893 16.8759 21.3054 17.0628 21.8295 17.413C22.3536 17.7632 22.7621 18.2609 23.0033 18.8433C23.2445 19.4256 23.3077 20.0664 23.1847 20.6846C23.0617 21.3028 22.7582 21.8707 22.3125 22.3164C21.8668 22.7621 21.2989 23.0656 20.6807 23.1886C20.0625 23.3116 19.4217 23.2484 18.8394 23.0072C18.257 22.766 17.7593 22.3575 17.4091 21.8334C17.0589 21.3094 16.872 20.6932 16.872 20.0629V20.0618C16.8738 19.6417 16.9603 19.2278 17.1248 18.8444H11.2453C11.4098 19.2278 11.4963 19.6417 11.4981 20.0618L11.4981 20.0629C11.4981 20.9081 11.1623 21.7187 10.5647 22.3164C9.96699 22.9141 9.15637 23.2498 8.31114 23.2498C7.46591 23.2498 6.65529 22.9141 6.05762 22.3164C5.45995 21.7187 5.12418 20.9081 5.12418 20.0629V20.0592H5.12421C5.13085 19.6112 5.23313 19.1713 5.42264 18.7683C4.96878 18.6361 4.56016 18.3748 4.2487 18.0126C3.86089 17.5617 3.65016 16.9852 3.65571 16.3905V2.69113H1.70299C1.44195 2.69113 1.19161 2.58744 1.00703 2.40286C0.822446 2.21828 0.71875 1.96793 0.71875 1.7069C0.71875 1.44586 0.822446 1.19551 1.00703 1.01093C1.19161 0.826353 1.44195 0.722656 1.70299 0.722656H4.63995C4.90098 0.722656 5.15133 0.826352 5.33591 1.01093C5.52049 1.19551 5.62418 1.44586 5.62418 1.7069V3.65961H20.7927H20.7932V3.90961C21.1259 3.90805 21.4547 3.98189 21.7548 4.12559C22.0549 4.26928 22.3186 4.47911 22.526 4.7393L21.6028 13.9705ZM21.6028 13.9705L23.2035 6.62815L23.2037 6.62717C23.2796 6.27202 23.2757 5.90444 23.1923 5.55097C23.1089 5.1976 22.9481 4.86715 22.7215 4.58347L21.6028 13.9705ZM20.7932 5.62809V5.62818L20.8 5.628C20.8764 5.62591 20.9522 5.64193 21.0212 5.67476C21.0903 5.70758 21.1505 5.75627 21.1971 5.81685L21.1971 5.81688L21.2001 5.82065C21.2442 5.87577 21.2757 5.93988 21.2925 6.00847C21.309 6.07635 21.3107 6.14701 21.2974 6.21558L19.6899 13.5554L19.6897 13.5565C19.6661 13.6666 19.6048 13.7651 19.5164 13.8349C19.428 13.9047 19.3181 13.9415 19.2055 13.939L19.2055 13.939H19.1999H5.62418V5.62809H20.7932ZM9.52962 20.0629C9.52962 20.3039 9.45815 20.5394 9.32427 20.7398C9.19038 20.9402 9.00008 21.0964 8.77743 21.1886C8.55478 21.2808 8.30979 21.305 8.07343 21.2579C7.83707 21.2109 7.61995 21.0949 7.44955 20.9245C7.27914 20.7541 7.16309 20.5369 7.11607 20.3006C7.06906 20.0642 7.09319 19.8192 7.18541 19.5966C7.27764 19.3739 7.43381 19.1836 7.63419 19.0497C7.83457 18.9159 8.07015 18.8444 8.31114 18.8444C8.6343 18.8444 8.94422 18.9728 9.17273 19.2013C9.40124 19.4298 9.52962 19.7397 9.52962 20.0629ZM20.059 21.2813C19.818 21.2813 19.5824 21.2099 19.382 21.076C19.1816 20.9421 19.0255 20.7518 18.9332 20.5292C18.841 20.3065 18.8169 20.0615 18.8639 19.8252C18.9109 19.5888 19.027 19.3717 19.1974 19.2013C19.3678 19.0309 19.5849 18.9148 19.8213 18.8678C20.0576 18.8208 20.3026 18.8449 20.5253 18.9371C20.7479 19.0294 20.9382 19.1855 21.0721 19.3859C21.206 19.5863 21.2774 19.8219 21.2774 20.0629C21.2774 20.386 21.1491 20.696 20.9206 20.9245C20.692 21.153 20.3821 21.2813 20.059 21.2813Z" fill="#F08620" stroke="#F08620" stroke-width="0.5"/>
</svg>
