<svg width="130" height="58" viewBox="0 0 130 58" fill="none" xmlns="http://www.w3.org/2000/svg">
<path d="M51.2674 9.68833C51.2674 8.35866 51.552 7.15564 52.1529 6.07924C52.7538 5.00285 53.6077 4.17972 54.6514 3.57821C55.6951 2.97669 56.8969 2.69177 58.1936 2.69177C59.7116 2.69177 61.0716 3.07167 62.2101 3.86314C63.3487 4.6546 64.1709 5.731 64.6137 7.12398H61.4511C61.1348 6.45915 60.692 5.98427 60.1228 5.66768C59.5535 5.35109 58.921 5.1928 58.1619 5.1928C57.3713 5.1928 56.6439 5.38275 56.043 5.76266C55.442 6.14256 54.936 6.6491 54.5881 7.31393C54.2403 7.97876 54.0821 8.80189 54.0821 9.68833C54.0821 10.5748 54.2403 11.3979 54.5881 12.0627C54.936 12.7276 55.4104 13.2658 56.043 13.6457C56.6755 14.0256 57.3713 14.1839 58.1619 14.1839C58.921 14.1839 59.5535 14.0256 60.1228 13.709C60.692 13.3607 61.1348 12.8859 61.4511 12.221H64.6137C64.1709 13.614 63.3487 14.7221 62.2101 15.4819C61.0716 16.2417 59.7433 16.6216 58.1936 16.6216C56.8969 16.6216 55.6951 16.3366 54.6514 15.7351C53.6077 15.1336 52.7855 14.3105 52.1529 13.2341C51.552 12.221 51.2674 11.018 51.2674 9.68833ZM73.0264 5.54105C73.8487 5.54105 74.576 5.731 75.2086 6.07924C75.8411 6.42749 76.3471 6.96568 76.695 7.66218C77.0746 8.35867 77.2327 9.18179 77.2327 10.1632V16.5266H74.4812V10.5431C74.4812 9.68833 74.2598 9.0235 73.8487 8.58028C73.4059 8.1054 72.8366 7.88379 72.0776 7.88379C71.3185 7.88379 70.7176 8.1054 70.2749 8.58028C69.8321 9.0235 69.6423 9.68833 69.6423 10.5431V16.5266H66.8908V2.05859H69.6423V7.06066C69.9902 6.58578 70.4646 6.23753 71.0655 5.95261C71.6664 5.66768 72.3306 5.54105 73.0264 5.54105ZM79.1619 11.0813C79.1619 9.97326 79.3833 9.0235 79.7944 8.16871C80.2372 7.31393 80.8381 6.68076 81.5655 6.20588C82.3246 5.76266 83.1785 5.50939 84.0956 5.50939C84.9179 5.50939 85.6137 5.66768 86.2146 5.98427C86.8155 6.30085 87.3215 6.71241 87.6694 7.21895V5.66768H90.4209V16.5266H87.6694V14.9437C87.3215 15.4502 86.8155 15.8618 86.2146 16.21C85.6137 16.5266 84.8863 16.6849 84.0956 16.6849C83.1785 16.6849 82.3562 16.4633 81.5971 15.9884C80.8381 15.5135 80.2688 14.8487 79.8261 14.0256C79.3833 13.1708 79.1619 12.1894 79.1619 11.0813ZM87.701 11.113C87.701 10.4481 87.5745 9.87828 87.3215 9.4034C87.0685 8.92852 86.7206 8.54862 86.2778 8.29535C85.8351 8.04208 85.3607 7.91544 84.8546 7.91544C84.3486 7.91544 83.8742 8.04208 83.4314 8.29535C82.9887 8.54862 82.6408 8.89686 82.3878 9.4034C82.1348 9.87828 82.0083 10.4481 82.0083 11.0813C82.0083 11.7145 82.1348 12.316 82.3878 12.7909C82.6724 13.2658 83.0203 13.6457 83.4314 13.8989C83.8742 14.1522 84.3486 14.2788 84.8546 14.2788C85.3607 14.2788 85.8351 14.1522 86.2778 13.8989C86.7206 13.6457 87.0685 13.2658 87.3215 12.7909C87.5745 12.3477 87.701 11.7778 87.701 11.113ZM99.1182 5.54105C100.415 5.54105 101.459 5.95261 102.249 6.77573C103.04 7.59886 103.451 8.70691 103.451 10.1949V16.5583H100.7V10.5431C100.7 9.68833 100.478 9.0235 100.067 8.58028C99.6242 8.1054 99.0549 7.88379 98.2959 7.88379C97.5368 7.88379 96.936 8.1054 96.4932 8.58028C96.0504 9.0235 95.8607 9.68833 95.8607 10.5431V16.5266H93.1092V5.69934H95.8607V7.06066C96.2402 6.58578 96.6829 6.23753 97.2522 5.95261C97.8215 5.66768 98.454 5.54105 99.1182 5.54105ZM110.314 5.50939C111.136 5.50939 111.832 5.66768 112.433 5.98427C113.034 6.30085 113.54 6.71241 113.888 7.21895V5.66768H116.639V16.6216C116.639 17.6346 116.449 18.5211 116.038 19.3126C115.627 20.104 115.026 20.7372 114.204 21.1804C113.382 21.6553 112.433 21.8769 111.263 21.8769C109.713 21.8769 108.448 21.5287 107.468 20.8005C106.487 20.0724 105.949 19.0909 105.791 17.8563H108.511C108.669 18.3628 108.954 18.7427 109.428 19.0276C109.903 19.3126 110.504 19.4709 111.168 19.4709C111.959 19.4709 112.623 19.2176 113.097 18.7427C113.603 18.2678 113.856 17.5397 113.856 16.5899V14.912C113.508 15.4185 113.002 15.8301 112.401 16.1784C111.8 16.5266 111.073 16.6849 110.282 16.6849C109.365 16.6849 108.543 16.4633 107.784 15.9884C107.025 15.5135 106.424 14.8487 105.981 14.0256C105.538 13.1708 105.349 12.1894 105.349 11.0813C105.349 9.97326 105.57 9.0235 105.981 8.16871C106.424 7.31393 107.025 6.68076 107.752 6.20588C108.543 5.731 109.365 5.50939 110.314 5.50939ZM113.888 11.113C113.888 10.4481 113.761 9.87828 113.508 9.4034C113.255 8.92852 112.907 8.54862 112.465 8.29535C112.022 8.04208 111.547 7.91544 111.041 7.91544C110.535 7.91544 110.061 8.04208 109.618 8.29535C109.175 8.54862 108.827 8.89686 108.574 9.4034C108.321 9.87828 108.195 10.4481 108.195 11.0813C108.195 11.7145 108.321 12.316 108.574 12.7909C108.859 13.2658 109.207 13.6457 109.618 13.8989C110.061 14.1522 110.535 14.2788 111.041 14.2788C111.547 14.2788 112.022 14.1522 112.465 13.8989C112.907 13.6457 113.255 13.2658 113.508 12.7909C113.761 12.3477 113.888 11.7778 113.888 11.113ZM129.385 10.8914C129.385 11.2713 129.353 11.6512 129.321 11.9361H121.415C121.478 12.7276 121.763 13.3291 122.237 13.7723C122.712 14.2155 123.312 14.4371 124.008 14.4371C125.02 14.4371 125.748 13.9939 126.19 13.1391H129.132C128.815 14.1839 128.215 15.0386 127.329 15.7351C126.443 16.4 125.368 16.7482 124.071 16.7482C123.028 16.7482 122.079 16.5266 121.257 16.0517C120.434 15.5768 119.802 14.912 119.327 14.0889C118.885 13.2341 118.632 12.2527 118.632 11.1446C118.632 10.0366 118.853 9.0235 119.327 8.20037C119.77 7.34559 120.434 6.71242 121.257 6.23754C122.079 5.79431 123.028 5.54105 124.103 5.54105C125.147 5.54105 126.064 5.76266 126.855 6.20588C127.677 6.6491 128.309 7.28227 128.752 8.1054C129.163 8.89686 129.385 9.81496 129.385 10.8914ZM126.57 10.0999C126.57 9.4034 126.317 8.83354 125.811 8.42198C125.305 7.97876 124.704 7.78881 123.977 7.78881C123.312 7.78881 122.712 8.01042 122.269 8.42198C121.826 8.83354 121.541 9.4034 121.415 10.1315H126.57V10.0999ZM62.7794 20.9588L58.1619 29.8549V34.6037H55.4104V29.8549L50.793 20.9588H53.8924L56.8336 27.1956L59.7433 20.9588H62.7794ZM69.1679 34.7936C68.1243 34.7936 67.1755 34.572 66.3532 34.0971C65.5309 33.6223 64.8667 32.9574 64.3923 32.1343C63.9179 31.2795 63.6966 30.2981 63.6966 29.1901C63.6966 28.082 63.9496 27.1006 64.424 26.2458C64.93 25.391 65.5941 24.7578 66.4481 24.283C67.302 23.8081 68.2508 23.5865 69.2944 23.5865C70.3381 23.5865 71.2869 23.8081 72.1408 24.283C72.9947 24.7262 73.6589 25.391 74.1333 26.2458C74.6393 27.1006 74.8923 28.082 74.8923 29.1901C74.8923 30.2981 74.6393 31.2795 74.1333 32.1343C73.6273 32.9891 72.9631 33.6539 72.1092 34.0971C71.192 34.572 70.2116 34.7936 69.1679 34.7936ZM69.1679 32.3876C69.6739 32.3876 70.1167 32.2609 70.5595 32.0393C71.0023 31.7861 71.3502 31.4378 71.6032 30.9313C71.8562 30.4564 71.9827 29.8549 71.9827 29.1584C71.9827 28.1137 71.6981 27.3222 71.1604 26.784C70.6228 26.2141 69.9586 25.9292 69.1995 25.9292C68.4405 25.9292 67.7447 26.2141 67.2387 26.784C66.7327 27.3222 66.4481 28.1137 66.4481 29.1584C66.4481 30.2031 66.7011 30.9946 67.2071 31.5328C67.7448 32.1343 68.3773 32.3876 69.1679 32.3876ZM87.0685 23.7764V34.6353H84.317V33.274C83.9691 33.7489 83.4947 34.1288 82.9254 34.3821C82.3562 34.6353 81.7553 34.762 81.0911 34.762C80.2372 34.762 79.4781 34.572 78.8456 34.2238C78.1815 33.8439 77.6755 33.3373 77.2959 32.6408C76.9164 31.9444 76.7583 31.0896 76.7583 30.1398V23.7764H79.5098V29.7599C79.5098 30.6147 79.7312 31.2795 80.1423 31.7544C80.5851 32.1976 81.1544 32.4509 81.9134 32.4509C82.6724 32.4509 83.2733 32.2293 83.6845 31.7544C84.1272 31.2795 84.317 30.6147 84.317 29.7599V23.7764H87.0685ZM92.5083 25.4543C92.8561 24.8845 93.3305 24.4413 93.8682 24.093C94.4374 23.7764 95.1016 23.6181 95.829 23.6181V26.4991H95.1016C94.2477 26.4991 93.5836 26.689 93.1408 27.1006C92.698 27.5121 92.5083 28.2086 92.5083 29.2217V34.6353H89.7567V23.7764H92.5083V25.4543ZM54.6514 41.2203V44.6395H59.2372V46.8239H54.6514V50.433H59.8381V52.6808H51.8999V39.0042H59.8381V41.252H54.6514V41.2203ZM68.3456 41.6952C69.6423 41.6952 70.686 42.1068 71.4767 42.9299C72.2673 43.753 72.6785 44.8611 72.6785 46.349V52.7124H69.927V46.6973C69.927 45.8425 69.7056 45.1777 69.2944 44.7345C68.8517 44.2596 68.2824 44.038 67.5234 44.038C66.7643 44.038 66.1634 44.2596 65.7206 44.7345C65.2779 45.1777 65.0881 45.8425 65.0881 46.6973V52.6808H62.3366V41.8219H65.0881V43.1832C65.4676 42.7083 65.9104 42.3601 66.4797 42.0751C67.049 41.8219 67.6499 41.6952 68.3456 41.6952ZM85.329 47.0139C85.329 47.3938 85.2974 47.7737 85.2658 48.0586H77.3276C77.3908 48.8501 77.6754 49.4516 78.1498 49.8948C78.6242 50.338 79.2251 50.5596 79.9209 50.5596C80.933 50.5596 81.6604 50.1164 82.1031 49.2616H85.0444C84.7282 50.3064 84.1272 51.1612 83.2417 51.8577C82.3562 52.5225 81.2809 52.8707 79.9842 52.8707C78.9405 52.8707 77.9917 52.6491 77.1694 52.1742C76.3471 51.6994 75.7146 51.0345 75.2402 50.2114C74.7975 49.3566 74.5444 48.3752 74.5444 47.2671C74.5444 46.1591 74.7658 45.146 75.2402 44.3229C75.683 43.4681 76.3471 42.8349 77.1694 42.3601C77.9917 41.9168 78.9405 41.6636 80.0158 41.6636C81.0595 41.6636 81.9766 41.8852 82.7673 42.3284C83.5896 42.7716 84.2221 43.4048 84.6649 44.2279C85.1077 45.051 85.329 45.9691 85.329 47.0139ZM82.5143 46.2541C82.5143 45.5576 82.2613 44.9877 81.7553 44.5762C81.2492 44.1329 80.6483 43.943 79.9209 43.943C79.2568 43.943 78.6559 44.1646 78.2131 44.5762C77.7703 44.9877 77.4857 45.5576 77.3592 46.2857H82.5143V46.2541ZM90.073 43.5314C90.4209 42.9616 90.8953 42.5183 91.4329 42.1701C92.0022 41.8535 92.6664 41.6952 93.3938 41.6952V44.5762H92.6664C91.8125 44.5762 91.1483 44.7661 90.7055 45.1777C90.2628 45.5892 90.073 46.2857 90.073 47.2988V52.7124H87.3215V41.8535H90.073V43.5314ZM99.4977 41.6636C100.32 41.6636 101.016 41.8219 101.617 42.1384C102.218 42.455 102.724 42.8666 103.071 43.3731V41.8219H105.823V52.7441C105.823 53.7572 105.633 54.6436 105.222 55.4351C104.811 56.2265 104.21 56.8597 103.388 57.3029C102.565 57.7778 101.617 57.9994 100.446 57.9994C98.8968 57.9994 97.6317 57.6512 96.6513 56.923C95.6709 56.1949 95.1332 55.2135 94.9751 53.9788H97.695C97.8531 54.4853 98.1377 54.8652 98.6121 55.1501C99.0865 55.4351 99.6874 55.5934 100.352 55.5934C101.142 55.5934 101.806 55.3401 102.281 54.8652C102.787 54.3903 103.04 53.6622 103.04 52.7124V51.0345C102.692 51.5411 102.186 51.9526 101.585 52.3009C100.984 52.6491 100.257 52.8074 99.4661 52.8074C98.5489 52.8074 97.7266 52.5858 96.9676 52.1109C96.2085 51.636 95.6077 50.9712 95.1649 50.1481C94.7221 49.2933 94.5324 48.3119 94.5324 47.2038C94.5324 46.0958 94.7537 45.146 95.1649 44.2912C95.6077 43.4364 96.2086 42.8033 96.936 42.3284C97.7266 41.8852 98.5805 41.6636 99.4977 41.6636ZM103.071 47.2671C103.071 46.6023 102.945 46.0325 102.692 45.5576C102.439 45.0827 102.091 44.7028 101.648 44.4495C101.206 44.1963 100.731 44.0696 100.225 44.0696C99.7191 44.0696 99.2447 44.1963 98.8019 44.4495C98.3592 44.7028 98.0112 45.051 97.7582 45.5576C97.5052 46.0325 97.3787 46.6023 97.3787 47.2355C97.3787 47.9003 97.5052 48.4702 97.7582 48.9451C98.0429 49.4199 98.3908 49.7998 98.8019 50.0531C99.2447 50.3064 99.7191 50.433 100.225 50.433C100.731 50.433 101.206 50.3064 101.648 50.0531C102.091 49.7998 102.439 49.4199 102.692 48.9451C102.945 48.5018 103.071 47.932 103.071 47.2671ZM118.885 41.8535L112.18 57.8411H109.27L111.611 52.4275L107.278 41.8535H110.346L113.129 49.4199L115.975 41.8535H118.885Z" fill="white"/>
<path d="M16.8941 52.2588C20.1493 52.2588 22.7881 49.6199 22.7881 46.3648C22.7881 43.1096 20.1493 40.4707 16.8941 40.4707C13.6389 40.4707 11 43.1096 11 46.3648C11 49.6199 13.6389 52.2588 16.8941 52.2588Z" fill="#FDEFE8"/>
<path d="M5.67339 43.4327C8.61525 43.4327 11.0001 41.0479 11.0001 38.106C11.0001 35.1641 8.61525 32.7793 5.67339 32.7793C2.73153 32.7793 0.34668 35.1641 0.34668 38.106C0.34668 41.0479 2.73153 43.4327 5.67339 43.4327Z" fill="#FDEFE8"/>
<path d="M4.6648 30.4468C7.24111 30.4468 9.32963 28.3583 9.32963 25.782C9.32963 23.2057 7.24111 21.1172 4.6648 21.1172C2.0885 21.1172 0 23.2057 0 25.782C0 28.3583 2.0885 30.4468 4.6648 30.4468Z" fill="#FDEFE8"/>
<path d="M11.0001 21.2132C13.1586 21.2132 14.9085 19.4634 14.9085 17.3048C14.9085 15.1463 13.1586 13.3965 11.0001 13.3965C8.84159 13.3965 7.0918 15.1463 7.0918 17.3048C7.0918 19.4634 8.84159 21.2132 11.0001 21.2132Z" fill="#FDEFE8"/>
<path d="M20.0149 20.0141C21.8601 20.0141 23.3559 18.5182 23.3559 16.673C23.3559 14.8279 21.8601 13.332 20.0149 13.332C18.1697 13.332 16.6738 14.8279 16.6738 16.673C16.6738 18.5182 18.1697 20.0141 20.0149 20.0141Z" fill="#FDEFE8"/>
<path d="M26.8858 23.8595C28.4699 23.8595 29.754 22.5753 29.754 20.9913C29.754 19.4072 28.4699 18.123 26.8858 18.123C25.3017 18.123 24.0176 19.4072 24.0176 20.9913C24.0176 22.5753 25.3017 23.8595 26.8858 23.8595Z" fill="#FDEFE8"/>
<path d="M24.522 11.7881C27.7772 11.7881 30.416 9.14924 30.416 5.89405C30.416 2.63885 27.7772 0 24.522 0C21.2668 0 18.6279 2.63885 18.6279 5.89405C18.6279 9.14924 21.2668 11.7881 24.522 11.7881Z" fill="#FDC793"/>
<path d="M36.4039 18.5323C39.3457 18.5323 41.7305 16.1475 41.7305 13.2056C41.7305 10.2638 39.3457 7.87891 36.4039 7.87891C33.462 7.87891 31.0771 10.2638 31.0771 13.2056C31.0771 16.1475 33.462 18.5323 36.4039 18.5323Z" fill="#FDC793"/>
<path d="M38.3904 30.0698C40.9667 30.0698 43.0552 27.9813 43.0552 25.405C43.0552 22.8287 40.9667 20.7402 38.3904 20.7402C35.8141 20.7402 33.7256 22.8287 33.7256 25.405C33.7256 27.9813 35.8141 30.0698 38.3904 30.0698Z" fill="#FDC793"/>
<path d="M32.8107 38.2952C34.9692 38.2952 36.7191 36.5454 36.7191 34.3869C36.7191 32.2283 34.9692 30.4785 32.8107 30.4785C30.6522 30.4785 28.9023 32.2283 28.9023 34.3869C28.9023 36.5454 30.6522 38.2952 32.8107 38.2952Z" fill="#FDC793"/>
<path d="M23.8596 39.1156C25.7047 39.1156 27.2006 37.6198 27.2006 35.7746C27.2006 33.9294 25.7047 32.4336 23.8596 32.4336C22.0144 32.4336 20.5186 33.9294 20.5186 35.7746C20.5186 37.6198 22.0144 39.1156 23.8596 39.1156Z" fill="#FDC793"/>
<path d="M16.6739 34.8907C18.258 34.8907 19.5421 33.6066 19.5421 32.0225C19.5421 30.4384 18.258 29.1543 16.6739 29.1543C15.0898 29.1543 13.8057 30.4384 13.8057 32.0225C13.8057 33.6066 15.0898 34.8907 16.6739 34.8907Z" fill="#FDC793"/>
</svg>
