<svg width="44" height="53" viewBox="0 0 44 53" fill="none" xmlns="http://www.w3.org/2000/svg">
<path d="M16.8941 52.2588C20.1493 52.2588 22.7881 49.6199 22.7881 46.3648C22.7881 43.1096 20.1493 40.4707 16.8941 40.4707C13.6389 40.4707 11 43.1096 11 46.3648C11 49.6199 13.6389 52.2588 16.8941 52.2588Z" fill="#FDEFE8"/>
<path d="M5.67339 43.4327C8.61525 43.4327 11.0001 41.0479 11.0001 38.106C11.0001 35.1641 8.61525 32.7793 5.67339 32.7793C2.73153 32.7793 0.34668 35.1641 0.34668 38.106C0.34668 41.0479 2.73153 43.4327 5.67339 43.4327Z" fill="#FDEFE8"/>
<path d="M4.6648 30.4468C7.24111 30.4468 9.32963 28.3583 9.32963 25.782C9.32963 23.2057 7.24111 21.1172 4.6648 21.1172C2.0885 21.1172 0 23.2057 0 25.782C0 28.3583 2.0885 30.4468 4.6648 30.4468Z" fill="#FDEFE8"/>
<path d="M11.0001 21.2132C13.1586 21.2132 14.9085 19.4634 14.9085 17.3048C14.9085 15.1463 13.1586 13.3965 11.0001 13.3965C8.84159 13.3965 7.0918 15.1463 7.0918 17.3048C7.0918 19.4634 8.84159 21.2132 11.0001 21.2132Z" fill="#FDEFE8"/>
<path d="M20.0149 20.0141C21.8601 20.0141 23.3559 18.5182 23.3559 16.673C23.3559 14.8279 21.8601 13.332 20.0149 13.332C18.1697 13.332 16.6738 14.8279 16.6738 16.673C16.6738 18.5182 18.1697 20.0141 20.0149 20.0141Z" fill="#FDEFE8"/>
<path d="M26.8858 23.8595C28.4699 23.8595 29.754 22.5753 29.754 20.9913C29.754 19.4072 28.4699 18.123 26.8858 18.123C25.3017 18.123 24.0176 19.4072 24.0176 20.9913C24.0176 22.5753 25.3017 23.8595 26.8858 23.8595Z" fill="#FDEFE8"/>
<path d="M24.522 11.7881C27.7772 11.7881 30.416 9.14924 30.416 5.89405C30.416 2.63885 27.7772 0 24.522 0C21.2668 0 18.6279 2.63885 18.6279 5.89405C18.6279 9.14924 21.2668 11.7881 24.522 11.7881Z" fill="#FDC793"/>
<path d="M36.4039 18.5323C39.3457 18.5323 41.7305 16.1475 41.7305 13.2056C41.7305 10.2638 39.3457 7.87891 36.4039 7.87891C33.462 7.87891 31.0771 10.2638 31.0771 13.2056C31.0771 16.1475 33.462 18.5323 36.4039 18.5323Z" fill="#FDC793"/>
<path d="M38.3904 30.0698C40.9667 30.0698 43.0552 27.9813 43.0552 25.405C43.0552 22.8287 40.9667 20.7402 38.3904 20.7402C35.8141 20.7402 33.7256 22.8287 33.7256 25.405C33.7256 27.9813 35.8141 30.0698 38.3904 30.0698Z" fill="#FDC793"/>
<path d="M32.8107 38.2952C34.9692 38.2952 36.7191 36.5454 36.7191 34.3869C36.7191 32.2283 34.9692 30.4785 32.8107 30.4785C30.6522 30.4785 28.9023 32.2283 28.9023 34.3869C28.9023 36.5454 30.6522 38.2952 32.8107 38.2952Z" fill="#FDC793"/>
<path d="M23.8596 39.1156C25.7047 39.1156 27.2006 37.6198 27.2006 35.7746C27.2006 33.9294 25.7047 32.4336 23.8596 32.4336C22.0144 32.4336 20.5186 33.9294 20.5186 35.7746C20.5186 37.6198 22.0144 39.1156 23.8596 39.1156Z" fill="#FDC793"/>
<path d="M16.6739 34.8907C18.258 34.8907 19.5421 33.6066 19.5421 32.0225C19.5421 30.4384 18.258 29.1543 16.6739 29.1543C15.0898 29.1543 13.8057 30.4384 13.8057 32.0225C13.8057 33.6066 15.0898 34.8907 16.6739 34.8907Z" fill="#FDC793"/>
</svg>
