<svg width="22" height="27" viewBox="0 0 22 27" fill="none" xmlns="http://www.w3.org/2000/svg">
<path d="M10.6002 10.5999C9.19457 10.5999 7.84658 10.0416 6.8526 9.0476C5.85861 8.05362 5.30029 6.70563 5.30029 5.29995C5.30029 3.89427 5.85861 2.54629 6.8526 1.5523C7.84658 0.55832 9.19457 0 10.6002 0C12.0059 0 13.3539 0.55832 14.3479 1.5523C15.3419 2.54629 15.9002 3.89427 15.9002 5.29995C15.9002 6.70563 15.3419 8.05362 14.3479 9.0476C13.3539 10.0416 12.0059 10.5999 10.6002 10.5999ZM10.6002 2.64986C9.89752 2.64986 9.22341 2.92914 8.72631 3.42601C8.22943 3.92311 7.95016 4.59723 7.95016 5.29995C7.95016 6.00268 8.22943 6.67679 8.72631 7.17389C9.22341 7.67077 9.89752 7.95004 10.6002 7.95004C11.303 7.95004 11.9771 7.67077 12.4742 7.17389C12.9711 6.67679 13.2503 6.00268 13.2503 5.29995C13.2503 4.59723 12.9711 3.92312 12.4742 3.42601C11.9771 2.92914 11.303 2.64986 10.6002 2.64986ZM17.2255 26.5H3.97502C2.92096 26.5 1.90988 26.0812 1.16434 25.3359C0.418797 24.5903 0 23.5793 0 22.525C0 19.7138 1.11687 17.0176 3.10483 15.0298C5.09257 13.0418 7.78877 11.9252 10.6 11.9252C13.4113 11.9252 16.1076 13.0418 18.0952 15.0298C20.0832 17.0177 21.2 19.714 21.2 22.525C21.2 23.5793 20.7812 24.5903 20.0357 25.3359C19.2902 26.0812 18.2791 26.5 17.225 26.5H17.2255ZM10.6002 14.5749C8.49184 14.5749 6.46975 15.4125 4.97866 16.9036C3.4878 18.3945 2.6502 20.4166 2.6502 22.525C2.6502 22.8766 2.78973 23.2135 3.03839 23.4619C3.28683 23.7104 3.62379 23.8501 3.97513 23.8501H17.2256C17.5769 23.8501 17.9139 23.7104 18.1623 23.4619C18.411 23.2135 18.5505 22.8765 18.5505 22.525C18.5505 20.4166 17.7129 18.3945 16.2221 16.9036C14.731 15.4125 12.7089 14.5749 10.6005 14.5749H10.6002Z" fill="white"/>
</svg>
