<svg width="24" height="35" viewBox="0 0 24 35" fill="none" xmlns="http://www.w3.org/2000/svg">
<path d="M11.6667 35C5.22191 35 0 29.5813 0 22.9357V12.0302C0 5.38461 5.22191 0 11.6667 0C18.1114 0 23.3333 5.38461 23.3333 12.0302V22.9357C23.3333 29.5813 18.1114 35 11.6667 35ZM11.6667 2.89679C6.77526 2.89679 2.80925 6.98637 2.80925 12.0302V22.9357C2.80925 27.9796 6.77526 32.0691 11.6667 32.0691C16.5581 32.0691 20.5241 27.9796 20.5241 22.9357V12.0302C20.5241 6.98637 16.5581 2.89679 11.6667 2.89679Z" fill="white"/>
<path d="M11.6667 14.5833C10.6266 14.5833 9.72222 13.8255 9.72222 12.8682V8.52065C9.72222 7.60328 10.5814 6.80556 11.6667 6.80556C12.7519 6.80556 13.6111 7.56339 13.6111 8.52065V12.8682C13.6111 13.8255 12.7519 14.5833 11.6667 14.5833Z" fill="white"/>
</svg>
