<svg width="29" height="29" viewBox="0 0 29 29" fill="none" xmlns="http://www.w3.org/2000/svg">
<path d="M12.1003 2.35986C6.76148 2.35986 2.43359 6.68812 2.43359 12.0266C2.43359 17.365 6.76148 21.6932 12.1003 21.6932C14.3196 21.6932 16.4232 20.9308 18.0548 19.6741L23.315 24.9787C23.787 25.4499 24.5802 25.4499 25.0521 24.9787C25.524 24.5062 25.524 23.7136 25.0521 23.2411L19.7554 17.9728C21.013 16.3415 21.7669 14.2463 21.7669 12.0266C21.7669 6.68812 17.439 2.35986 12.1003 2.35986ZM12.1003 4.77654C16.1043 4.77654 19.3503 8.02213 19.3503 12.0266C19.3503 16.031 16.1043 19.2766 12.1003 19.2766C8.09621 19.2766 4.85026 16.031 4.85026 12.0266C4.85026 8.02213 8.09621 4.77654 12.1003 4.77654Z" fill="white"/>
</svg>
